<svg id="svg" version="1.1" xmlns="http://www.w3.org/2000/svg" xmlns:xlink="http://www.w3.org/1999/xlink" width="400" height="313.28671328671334" viewBox="0, 0, 400,313.28671328671334"><g id="svgg"><path id="path0" d="M126.332 90.578 C 124.990 91.289,121.472 94.903,120.929 96.128 C 120.393 97.338,120.167 205.288,120.686 212.295 C 121.019 216.792,121.266 217.812,122.530 219.907 C 122.843 220.426,123.201 221.392,123.325 222.055 C 123.613 223.588,124.420 225.340,125.274 226.287 C 125.640 226.693,126.116 227.558,126.331 228.209 C 126.546 228.861,127.282 230.007,127.966 230.755 C 128.651 231.504,129.412 232.506,129.658 232.981 C 129.904 233.456,130.509 234.054,131.003 234.310 C 131.496 234.565,132.493 235.343,133.217 236.039 C 133.941 236.735,134.657 237.304,134.807 237.304 C 134.958 237.304,135.698 237.930,136.452 238.695 C 137.206 239.460,138.236 240.187,138.739 240.309 C 139.243 240.432,140.181 241.001,140.823 241.575 C 141.465 242.148,142.311 242.690,142.704 242.779 C 143.096 242.868,144.475 243.153,145.768 243.413 C 147.061 243.673,148.488 244.158,148.938 244.491 C 150.791 245.860,152.011 245.897,198.903 246.007 C 247.633 246.121,248.207 246.103,251.254 244.336 C 251.944 243.936,253.478 243.454,254.663 243.265 C 256.976 242.897,258.024 242.462,259.445 241.282 C 259.940 240.871,260.768 240.433,261.285 240.310 C 261.803 240.186,262.649 239.619,263.166 239.050 C 263.683 238.480,264.628 237.749,265.265 237.424 C 266.398 236.847,270.533 233.069,270.533 232.611 C 270.533 232.484,270.893 231.971,271.334 231.472 C 271.775 230.973,272.477 230.177,272.895 229.704 C 273.313 229.230,273.751 228.454,273.868 227.979 C 274.098 227.046,274.725 225.918,275.568 224.922 C 275.860 224.577,276.267 223.730,276.474 223.041 C 276.681 222.351,277.187 221.141,277.600 220.353 C 279.580 216.565,279.441 221.108,279.549 156.595 C 279.616 116.418,279.543 97.502,279.317 96.448 C 278.946 94.715,275.210 90.596,274.010 90.596 C 273.670 90.596,273.304 90.455,273.197 90.282 C 272.954 89.888,235.848 89.848,235.605 90.242 C 235.512 90.392,235.024 90.597,234.521 90.698 C 232.694 91.063,232.552 92.139,232.662 104.785 C 232.782 118.631,231.741 117.053,240.842 117.188 C 247.578 117.288,247.849 117.317,249.138 118.063 L 250.470 118.835 250.468 162.004 C 250.467 191.710,250.360 205.759,250.126 207.053 C 249.939 208.088,249.679 209.537,249.550 210.273 C 249.299 211.697,248.287 213.028,247.207 213.353 C 246.847 213.461,246.192 213.887,245.752 214.298 C 244.419 215.543,242.383 215.701,228.948 215.606 C 214.490 215.503,214.965 215.600,214.615 212.696 C 214.511 211.834,214.424 184.668,214.423 152.327 L 214.420 93.526 213.636 92.790 C 213.205 92.385,212.853 91.876,212.853 91.659 C 212.853 91.443,212.443 90.974,211.942 90.617 C 209.942 89.193,186.834 89.785,186.834 91.261 C 186.834 91.387,186.587 91.738,186.285 92.040 C 185.768 92.557,185.728 96.020,185.580 153.341 L 185.423 214.095 184.639 214.649 C 183.445 215.495,181.638 215.611,169.592 215.620 C 156.967 215.629,155.543 215.511,154.307 214.354 C 153.835 213.912,153.153 213.461,152.793 213.353 C 150.059 212.530,150.157 214.366,150.157 163.637 L 150.157 118.841 151.176 118.067 C 152.174 117.309,152.329 117.291,158.934 117.189 C 168.315 117.043,167.399 118.492,167.395 103.801 C 167.390 90.754,167.436 91.088,165.580 90.455 C 163.209 89.647,127.880 89.758,126.332 90.578 " stroke="none" fill="#44f1aa" fill-rule="evenodd"></path><path id="path1" d="M0.000 156.740 L 0.000 313.480 200.000 313.480 L 400.000 313.480 400.000 156.740 L 400.000 0.000 200.000 0.000 L 0.000 0.000 0.000 156.740 M164.221 87.644 C 164.567 88.071,165.287 88.368,166.309 88.505 C 168.213 88.758,168.809 89.399,169.086 91.487 C 169.210 92.419,169.478 93.113,169.756 93.219 C 170.433 93.479,170.454 113.629,169.778 114.013 C 169.535 114.151,169.182 115.102,168.994 116.126 C 168.609 118.218,168.439 118.391,166.467 118.689 C 165.540 118.829,164.868 119.151,164.485 119.638 C 163.913 120.365,163.820 120.376,158.128 120.376 L 152.351 120.376 152.357 165.282 L 152.362 210.188 153.118 210.905 C 154.361 212.084,175.275 212.851,181.975 211.963 L 183.542 211.755 183.699 150.871 C 183.854 90.510,183.861 89.981,184.483 89.360 C 184.945 88.898,185.727 88.677,187.461 88.520 C 189.263 88.357,190.019 88.135,190.698 87.571 C 191.581 86.837,191.619 86.834,200.158 86.834 L 208.732 86.834 209.308 87.566 C 209.740 88.115,210.327 88.350,211.665 88.507 C 213.875 88.767,215.495 89.691,216.041 91.004 C 216.381 91.821,216.487 103.076,216.614 152.038 L 216.771 212.069 230.251 212.069 C 243.878 212.069,246.082 211.938,246.082 211.125 C 246.082 210.880,246.505 210.247,247.022 209.718 L 247.962 208.756 247.962 165.062 C 247.962 141.030,247.877 121.145,247.772 120.872 C 247.608 120.445,246.787 120.376,241.839 120.376 C 236.182 120.376,236.087 120.365,235.515 119.638 C 235.123 119.139,234.459 118.829,233.460 118.680 C 231.905 118.446,231.034 117.656,231.034 116.478 C 231.034 116.135,230.647 115.545,230.172 115.167 L 229.310 114.480 229.218 104.340 C 229.117 93.203,229.142 92.925,230.254 92.418 C 230.786 92.175,231.086 91.719,231.226 90.940 C 231.505 89.376,232.098 88.815,233.724 88.571 C 234.716 88.422,235.267 88.139,235.622 87.597 L 236.122 86.834 253.116 86.834 L 270.110 86.834 270.805 87.574 C 271.381 88.187,271.937 88.350,274.056 88.526 C 276.872 88.761,277.262 88.961,277.902 90.492 C 278.179 91.155,278.555 91.536,278.932 91.536 C 279.800 91.536,280.465 92.425,280.904 94.172 C 281.117 95.018,281.541 95.961,281.848 96.268 C 282.154 96.574,282.554 97.363,282.737 98.020 C 283.306 100.072,283.167 208.907,282.593 210.502 C 282.344 211.191,282.139 212.375,282.136 213.132 C 282.133 214.018,281.956 214.636,281.638 214.869 C 281.283 215.128,281.070 216.099,280.880 218.307 C 280.624 221.298,279.948 222.835,278.616 223.452 C 278.493 223.509,278.226 224.402,278.023 225.437 C 277.662 227.271,277.370 227.779,276.204 228.598 C 275.892 228.817,275.410 229.780,275.132 230.737 C 274.707 232.201,274.454 232.559,273.532 232.999 C 272.746 233.374,272.363 233.811,272.172 234.550 C 271.968 235.346,271.663 235.660,270.828 235.934 C 270.022 236.198,269.640 236.574,269.315 237.422 C 268.964 238.341,268.648 238.619,267.656 238.887 C 266.824 239.110,266.338 239.459,266.144 239.969 C 265.791 240.899,264.553 241.564,262.646 241.850 C 261.404 242.036,261.170 242.187,261.024 242.899 C 260.788 244.049,259.938 244.475,257.407 244.710 C 255.535 244.884,255.188 245.013,254.901 245.645 C 254.005 247.611,257.559 247.492,199.819 247.492 C 141.693 247.492,145.518 247.628,144.997 245.550 C 144.837 244.914,144.619 244.825,143.176 244.810 C 140.660 244.783,139.399 244.238,139.042 243.025 C 138.813 242.250,138.566 242.006,138.005 242.006 C 136.087 242.006,134.557 241.334,133.968 240.232 C 133.582 239.509,133.091 239.082,132.512 238.965 C 131.570 238.775,130.721 237.811,130.721 236.933 C 130.721 236.563,130.321 236.280,129.477 236.053 C 128.389 235.760,128.190 235.560,127.897 234.473 C 127.670 233.629,127.387 233.229,127.017 233.229 C 126.026 233.229,125.168 232.346,124.972 231.124 C 124.845 230.329,124.558 229.833,124.104 229.624 C 123.204 229.208,122.317 227.458,122.095 225.660 C 121.963 224.591,121.758 224.163,121.327 224.050 C 120.140 223.739,119.426 221.568,119.215 217.626 C 119.039 214.343,118.946 213.901,118.326 213.414 C 116.914 212.303,116.928 212.894,116.928 154.421 C 116.928 95.905,116.891 97.413,118.333 97.051 C 118.931 96.901,119.061 96.596,119.235 94.930 C 119.453 92.849,120.208 91.652,121.415 91.474 C 121.834 91.413,122.150 91.047,122.307 90.439 C 122.650 89.118,123.479 88.722,126.370 88.499 C 128.568 88.329,128.952 88.209,129.381 87.554 L 129.872 86.804 146.782 86.897 C 163.483 86.989,163.699 86.999,164.221 87.644 " stroke="none" fill="#4c5454" fill-rule="evenodd"></path><path id="path2" d="M187.716 89.265 C 183.702 90.082,184.016 84.643,184.014 153.193 C 184.013 212.782,183.999 213.480,182.836 213.480 C 182.525 213.480,181.977 213.685,181.618 213.937 C 180.409 214.784,155.440 214.676,154.351 213.820 C 153.894 213.460,153.339 213.166,153.117 213.166 C 152.895 213.166,152.279 212.732,151.748 212.202 C 151.218 211.671,150.784 211.376,150.784 211.547 C 150.784 211.941,152.598 213.480,153.063 213.480 C 153.256 213.480,153.808 213.857,154.290 214.319 C 155.540 215.516,156.868 215.629,169.592 215.620 C 181.638 215.611,183.445 215.495,184.639 214.649 L 185.423 214.095 185.580 153.341 C 185.728 96.020,185.768 92.557,186.285 92.040 C 186.587 91.738,186.834 91.387,186.834 91.261 C 186.834 89.764,209.946 89.196,211.978 90.643 C 213.053 91.408,212.839 90.555,211.725 89.629 C 210.962 88.996,190.560 88.687,187.716 89.265 M127.090 89.311 L 124.556 89.515 122.513 91.559 C 120.853 93.219,120.340 93.982,119.781 95.626 C 119.402 96.738,118.817 98.031,118.480 98.498 C 117.533 99.813,117.518 207.697,118.465 210.189 C 118.792 211.051,119.157 212.461,119.274 213.323 C 120.023 218.816,120.741 221.761,121.490 222.414 C 121.688 222.586,122.167 223.574,122.554 224.608 C 123.494 227.119,123.881 227.900,124.182 227.900 C 124.320 227.900,124.790 228.654,125.226 229.575 C 126.069 231.358,130.849 236.456,133.384 238.277 C 134.141 238.820,134.832 239.452,134.919 239.680 C 135.095 240.140,137.477 241.379,138.183 241.379 C 138.429 241.379,139.082 241.873,139.634 242.475 C 140.520 243.442,140.876 243.596,142.654 243.778 C 144.607 243.979,145.584 244.387,146.837 245.522 C 148.016 246.591,150.057 246.637,197.649 246.672 C 246.413 246.706,248.429 246.661,250.130 245.496 C 251.189 244.769,253.425 243.961,255.087 243.702 C 255.817 243.588,256.663 243.291,256.968 243.041 C 257.274 242.791,257.371 242.661,257.185 242.752 C 256.999 242.843,255.871 243.073,254.677 243.263 C 253.484 243.453,251.944 243.936,251.254 244.336 C 248.207 246.103,247.633 246.121,198.903 246.007 C 152.011 245.897,150.791 245.860,148.938 244.491 C 148.488 244.158,147.061 243.673,145.768 243.413 C 144.475 243.153,143.096 242.868,142.704 242.779 C 142.311 242.690,141.465 242.148,140.823 241.575 C 140.181 241.001,139.243 240.432,138.739 240.309 C 138.236 240.187,137.206 239.460,136.452 238.695 C 135.698 237.930,134.958 237.304,134.807 237.304 C 134.657 237.304,133.941 236.735,133.217 236.039 C 132.493 235.343,131.496 234.565,131.003 234.310 C 130.509 234.054,129.904 233.456,129.658 232.981 C 129.412 232.506,128.651 231.504,127.966 230.755 C 127.282 230.007,126.546 228.861,126.331 228.209 C 126.116 227.558,125.640 226.693,125.274 226.287 C 124.420 225.340,123.613 223.588,123.325 222.055 C 123.201 221.392,122.843 220.426,122.530 219.907 C 121.266 217.812,121.019 216.792,120.686 212.295 C 120.167 205.288,120.393 97.338,120.929 96.128 C 121.492 94.857,125.019 91.269,126.398 90.563 C 127.720 89.887,163.308 89.621,165.027 90.274 C 165.469 90.443,165.831 90.466,165.831 90.327 C 165.831 89.303,136.663 88.537,127.090 89.311 M234.639 89.304 C 232.859 89.611,232.631 89.818,231.622 92.042 L 230.721 94.030 230.721 103.541 C 230.721 113.838,230.917 115.400,232.428 117.158 L 233.173 118.025 240.386 118.120 C 248.356 118.224,247.978 118.117,248.544 120.437 C 249.009 122.345,249.058 204.707,248.595 207.246 C 247.843 211.371,247.852 211.357,245.118 212.649 C 243.751 213.295,242.633 213.958,242.633 214.122 C 242.633 214.306,237.598 214.420,229.490 214.420 L 216.346 214.420 215.730 213.636 C 214.968 212.668,214.731 212.649,214.743 213.558 C 214.770 215.439,215.256 215.509,228.948 215.606 C 242.383 215.701,244.419 215.543,245.752 214.298 C 246.192 213.887,246.847 213.461,247.207 213.353 C 248.287 213.028,249.299 211.697,249.550 210.273 C 249.679 209.537,249.939 208.088,250.126 207.053 C 250.360 205.759,250.467 191.710,250.468 162.004 L 250.470 118.835 249.138 118.063 C 247.849 117.317,247.578 117.288,240.842 117.188 C 231.741 117.053,232.782 118.631,232.662 104.785 C 232.552 92.139,232.694 91.063,234.521 90.698 C 235.024 90.597,235.512 90.392,235.605 90.242 C 235.827 89.882,272.952 89.885,273.174 90.245 C 273.268 90.397,273.695 90.588,274.124 90.670 C 275.110 90.858,274.862 90.438,273.569 89.731 C 272.518 89.156,237.716 88.775,234.639 89.304 M276.312 92.444 C 276.429 92.632,276.815 92.942,277.171 93.133 C 277.635 93.381,277.758 93.382,277.607 93.136 C 277.490 92.948,277.103 92.637,276.747 92.447 C 276.283 92.199,276.160 92.198,276.312 92.444 M167.539 103.605 C 167.539 109.467,167.581 111.821,167.633 108.836 C 167.684 105.851,167.684 101.054,167.633 98.177 C 167.581 95.301,167.539 97.743,167.539 103.605 M279.777 154.075 C 279.777 184.765,279.814 197.273,279.859 181.872 C 279.904 166.470,279.904 141.360,279.859 126.072 C 279.814 110.784,279.777 123.386,279.777 154.075 M158.461 117.162 C 152.339 117.252,152.166 117.272,151.251 118.020 L 150.313 118.786 151.409 118.484 C 152.011 118.318,155.163 118.182,158.412 118.182 C 163.847 118.182,164.385 118.131,165.118 117.555 C 165.776 117.037,165.812 116.940,165.324 116.999 C 164.999 117.039,161.911 117.112,158.461 117.162 M279.413 213.009 C 279.415 214.216,279.471 214.672,279.539 214.021 C 279.607 213.371,279.606 212.383,279.537 211.827 C 279.467 211.270,279.412 211.803,279.413 213.009 M270.723 232.158 C 270.606 232.463,270.676 232.606,270.905 232.530 C 271.374 232.374,271.632 231.661,271.220 231.661 C 271.051 231.661,270.828 231.885,270.723 232.158 M268.322 234.970 C 267.908 235.411,267.781 235.690,268.039 235.591 C 268.447 235.435,269.462 234.169,269.180 234.169 C 269.122 234.169,268.736 234.530,268.322 234.970 M265.071 237.512 C 263.947 238.120,262.770 239.185,263.221 239.185 C 263.403 239.185,263.888 238.927,264.299 238.611 C 264.711 238.296,265.294 237.948,265.596 237.837 C 265.897 237.727,266.144 237.492,266.144 237.314 C 266.144 236.917,266.184 236.909,265.071 237.512 M262.069 239.995 C 261.638 240.234,261.056 240.432,260.775 240.434 C 260.494 240.437,260.089 240.650,259.875 240.909 C 259.660 241.168,259.581 241.379,259.700 241.379 C 260.213 241.379,263.009 240.023,263.009 239.773 C 263.009 239.622,262.974 239.512,262.931 239.529 C 262.888 239.546,262.500 239.756,262.069 239.995 " stroke="none" fill="#4c8690" fill-rule="evenodd"></path><path id="path3" d="M144.462 88.690 C 134.864 88.790,126.940 88.942,126.854 89.028 C 126.768 89.114,134.833 89.185,144.775 89.185 C 162.761 89.185,165.831 89.348,165.831 90.302 C 165.831 90.440,166.084 90.634,166.393 90.732 C 167.493 91.081,167.712 93.242,167.707 103.688 C 167.701 115.191,167.612 115.760,165.592 117.223 L 164.269 118.182 158.388 118.184 C 155.154 118.185,151.979 118.332,151.332 118.512 L 150.157 118.838 150.160 163.729 C 150.164 212.628,150.094 210.699,151.912 212.384 C 152.376 212.814,152.928 213.166,153.138 213.166 C 153.348 213.166,153.894 213.460,154.351 213.820 C 155.423 214.663,180.407 214.785,181.595 213.953 C 182.142 213.570,180.511 213.500,169.247 213.417 C 156.498 213.325,156.242 213.310,154.702 212.607 C 152.298 211.509,152.208 211.437,151.996 210.468 C 151.736 209.276,151.738 120.814,151.999 119.592 L 152.199 118.652 159.306 118.495 C 169.665 118.267,169.020 119.321,168.893 102.821 C 168.770 86.792,171.563 88.407,144.462 88.690 M200.576 89.002 L 211.340 89.185 212.096 90.065 C 212.512 90.548,212.853 91.194,212.853 91.499 C 212.853 91.804,213.205 92.385,213.636 92.790 L 214.420 93.526 214.420 152.825 L 214.420 212.125 215.400 213.272 L 216.381 214.420 229.350 214.420 C 241.284 214.420,242.364 214.376,242.869 213.871 C 243.391 213.349,242.783 213.323,230.104 213.323 L 216.790 213.323 216.393 212.539 C 216.078 211.916,215.996 199.671,215.992 152.576 C 215.987 88.378,216.097 92.408,214.296 90.532 C 212.836 89.012,211.956 88.906,200.470 88.861 L 189.812 88.820 200.576 89.002 M234.905 88.955 C 234.706 89.081,243.099 89.185,253.557 89.185 C 275.095 89.185,273.096 88.942,276.176 91.935 C 278.055 93.761,278.728 94.548,279.364 95.665 C 279.706 96.265,279.781 106.922,279.781 155.329 L 279.781 214.263 279.085 216.458 C 277.955 220.024,276.243 224.179,275.613 224.888 C 275.290 225.252,274.767 226.250,274.451 227.107 C 274.135 227.964,273.410 229.146,272.840 229.733 C 272.270 230.319,271.716 231.077,271.608 231.416 C 271.449 231.920,269.601 234.076,268.356 235.212 C 268.200 235.354,267.533 235.986,266.873 236.616 C 265.695 237.742,265.121 238.159,263.715 238.909 C 263.327 239.116,263.009 239.457,263.009 239.667 C 263.009 240.011,260.314 241.379,259.637 241.379 C 259.483 241.379,258.686 241.857,257.865 242.441 C 257.044 243.025,255.785 243.594,255.067 243.705 C 253.463 243.954,251.206 244.763,250.157 245.463 C 249.726 245.751,249.020 246.109,248.589 246.260 C 248.158 246.410,226.646 246.613,200.784 246.710 L 153.762 246.887 202.038 246.863 C 252.691 246.838,251.580 246.868,253.341 245.483 C 254.205 244.803,257.079 243.887,258.348 243.887 C 258.971 243.887,259.451 243.578,260.051 242.793 C 260.604 242.067,261.313 241.583,262.154 241.356 C 262.851 241.169,263.812 240.625,264.289 240.148 C 264.766 239.671,265.600 239.097,266.142 238.872 C 267.160 238.451,271.787 234.193,271.787 233.677 C 271.787 233.517,272.344 232.846,273.024 232.186 C 273.705 231.525,274.505 230.326,274.802 229.521 C 275.100 228.715,275.741 227.652,276.228 227.159 C 276.969 226.407,278.056 223.816,278.056 222.803 C 278.056 222.649,278.447 222.132,278.924 221.655 C 279.845 220.734,280.878 215.858,280.878 212.431 C 280.878 211.617,281.089 210.445,281.348 209.826 C 282.041 208.168,282.062 100.447,281.370 98.178 C 281.123 97.370,280.677 95.885,280.378 94.880 C 280.004 93.621,279.582 92.889,279.024 92.530 C 278.298 92.064,277.630 91.369,276.632 90.041 C 275.775 88.901,236.591 87.881,234.905 88.955 M236.834 118.398 C 242.194 118.622,247.892 118.632,247.758 118.417 C 247.678 118.288,244.693 118.210,241.126 118.244 C 237.558 118.278,235.627 118.348,236.834 118.398 M143.286 244.000 C 143.656 244.318,145.174 244.508,144.992 244.213 C 144.881 244.034,144.423 243.887,143.973 243.887 C 143.524 243.887,143.214 243.938,143.286 244.000 " stroke="none" fill="#468c5e" fill-rule="evenodd"></path><path id="path4" d="M129.381 87.554 C 128.952 88.209,128.568 88.329,126.370 88.499 C 123.479 88.722,122.650 89.118,122.307 90.439 C 122.150 91.047,121.834 91.413,121.415 91.474 C 120.208 91.652,119.453 92.849,119.235 94.930 C 119.061 96.596,118.931 96.901,118.333 97.051 C 116.891 97.413,116.928 95.905,116.928 154.421 C 116.928 212.894,116.914 212.303,118.326 213.414 C 118.946 213.901,119.039 214.343,119.215 217.626 C 119.426 221.568,120.140 223.739,121.327 224.050 C 121.758 224.163,121.963 224.591,122.095 225.660 C 122.317 227.458,123.204 229.208,124.104 229.624 C 124.558 229.833,124.845 230.329,124.972 231.124 C 125.168 232.346,126.026 233.229,127.017 233.229 C 127.387 233.229,127.670 233.629,127.897 234.473 C 128.190 235.560,128.389 235.760,129.477 236.053 C 130.321 236.280,130.721 236.563,130.721 236.933 C 130.721 237.811,131.570 238.775,132.512 238.965 C 133.091 239.082,133.582 239.509,133.968 240.232 C 134.557 241.334,136.087 242.006,138.005 242.006 C 138.566 242.006,138.813 242.250,139.042 243.025 C 139.399 244.238,140.660 244.783,143.176 244.810 C 144.619 244.825,144.837 244.914,144.997 245.550 C 145.518 247.628,141.693 247.492,199.819 247.492 C 257.559 247.492,254.005 247.611,254.901 245.645 C 255.188 245.013,255.535 244.884,257.407 244.710 C 259.938 244.475,260.788 244.049,261.024 242.899 C 261.170 242.187,261.404 242.036,262.646 241.850 C 264.553 241.564,265.791 240.899,266.144 239.969 C 266.338 239.459,266.824 239.110,267.656 238.887 C 268.648 238.619,268.964 238.341,269.315 237.422 C 269.640 236.574,270.022 236.198,270.828 235.934 C 271.663 235.660,271.968 235.346,272.172 234.550 C 272.363 233.811,272.746 233.374,273.532 232.999 C 274.454 232.559,274.707 232.201,275.132 230.737 C 275.410 229.780,275.892 228.817,276.204 228.598 C 277.370 227.779,277.662 227.271,278.023 225.437 C 278.226 224.402,278.493 223.509,278.616 223.452 C 279.948 222.835,280.624 221.298,280.880 218.307 C 281.070 216.099,281.283 215.128,281.638 214.869 C 281.956 214.636,282.133 214.018,282.136 213.132 C 282.139 212.375,282.344 211.191,282.593 210.502 C 283.167 208.907,283.306 100.072,282.737 98.020 C 282.554 97.363,282.154 96.574,281.848 96.268 C 281.541 95.961,281.117 95.018,280.904 94.172 C 280.465 92.425,279.800 91.536,278.932 91.536 C 278.555 91.536,278.179 91.155,277.902 90.492 C 277.262 88.961,276.872 88.761,274.056 88.526 C 271.937 88.350,271.381 88.187,270.805 87.574 L 270.110 86.834 253.116 86.834 L 236.122 86.834 235.622 87.597 C 235.267 88.139,234.716 88.422,233.724 88.571 C 232.098 88.815,231.505 89.376,231.226 90.940 C 231.086 91.719,230.786 92.175,230.254 92.418 C 229.142 92.925,229.117 93.203,229.218 104.340 L 229.310 114.480 230.172 115.167 C 230.647 115.545,231.034 116.135,231.034 116.478 C 231.034 117.656,231.905 118.446,233.460 118.680 C 234.459 118.829,235.123 119.139,235.515 119.638 C 236.087 120.365,236.182 120.376,241.839 120.376 C 246.787 120.376,247.608 120.445,247.772 120.872 C 247.877 121.145,247.962 141.030,247.962 165.062 L 247.962 208.756 247.022 209.718 C 246.505 210.247,246.082 210.880,246.082 211.125 C 246.082 211.938,243.878 212.069,230.251 212.069 L 216.771 212.069 216.614 152.038 C 216.487 103.076,216.381 91.821,216.041 91.004 C 215.495 89.691,213.875 88.767,211.665 88.507 C 210.327 88.350,209.740 88.115,209.308 87.566 L 208.732 86.834 200.158 86.834 C 191.619 86.834,191.581 86.837,190.698 87.571 C 190.019 88.135,189.263 88.357,187.461 88.520 C 185.727 88.677,184.945 88.898,184.483 89.360 C 183.861 89.981,183.854 90.510,183.699 150.871 L 183.542 211.755 181.975 211.963 C 175.275 212.851,154.361 212.084,153.118 210.905 L 152.362 210.188 152.357 165.282 L 152.351 120.376 158.128 120.376 C 163.820 120.376,163.913 120.365,164.485 119.638 C 164.868 119.151,165.540 118.829,166.467 118.689 C 168.439 118.391,168.609 118.218,168.994 116.126 C 169.182 115.102,169.535 114.151,169.778 114.013 C 170.454 113.629,170.433 93.479,169.756 93.219 C 169.478 93.113,169.210 92.419,169.086 91.487 C 168.809 89.399,168.213 88.758,166.309 88.505 C 165.287 88.368,164.567 88.071,164.221 87.644 C 163.699 86.999,163.483 86.989,146.782 86.897 L 129.872 86.804 129.381 87.554 M166.519 89.301 C 168.807 90.282,168.797 90.221,168.893 102.821 C 169.020 119.321,169.665 118.267,159.306 118.495 L 152.199 118.652 151.999 119.592 C 151.738 120.814,151.736 209.276,151.996 210.468 C 152.208 211.437,152.298 211.509,154.702 212.607 C 156.246 213.312,156.473 213.324,169.829 213.417 L 183.389 213.511 183.701 212.691 C 183.903 212.159,184.013 191.312,184.014 153.193 C 184.015 118.112,184.135 93.791,184.311 92.717 C 184.925 88.968,186.316 88.637,200.829 88.793 C 211.899 88.912,212.858 89.036,214.296 90.532 C 216.097 92.408,215.987 88.378,215.992 152.576 C 215.996 199.677,216.078 211.915,216.393 212.539 L 216.790 213.323 230.318 213.323 L 243.846 213.323 245.726 212.382 C 247.771 211.360,247.881 211.162,248.595 207.246 C 249.063 204.680,249.009 122.336,248.539 120.437 C 248.045 118.445,248.268 118.506,241.440 118.500 C 233.501 118.494,232.877 118.335,231.745 116.030 L 230.878 114.263 230.783 104.182 L 230.689 94.100 231.627 92.031 C 233.208 88.545,232.100 88.714,253.396 88.721 C 271.867 88.727,275.813 88.951,276.632 90.041 C 277.630 91.369,278.298 92.064,279.024 92.530 C 279.582 92.889,280.004 93.621,280.378 94.880 C 280.677 95.885,281.123 97.370,281.370 98.178 C 282.062 100.447,282.041 208.168,281.348 209.826 C 281.089 210.445,280.878 211.617,280.878 212.431 C 280.878 215.858,279.845 220.734,278.924 221.655 C 278.447 222.132,278.056 222.649,278.056 222.803 C 278.056 223.816,276.969 226.407,276.228 227.159 C 275.741 227.652,275.100 228.715,274.802 229.521 C 274.505 230.326,273.705 231.525,273.024 232.186 C 272.344 232.846,271.787 233.517,271.787 233.677 C 271.787 234.193,267.160 238.451,266.142 238.872 C 265.600 239.097,264.766 239.671,264.289 240.148 C 263.812 240.625,262.851 241.169,262.154 241.356 C 261.313 241.583,260.604 242.067,260.051 242.793 C 259.451 243.578,258.971 243.887,258.348 243.887 C 257.026 243.887,254.349 244.767,253.108 245.609 C 251.273 246.854,250.818 246.865,199.843 246.865 C 147.000 246.865,148.457 246.909,146.563 245.281 C 146.072 244.859,145.587 244.514,145.484 244.514 C 143.642 244.511,140.485 243.405,139.617 242.457 C 139.074 241.864,138.429 241.379,138.183 241.379 C 137.477 241.379,135.095 240.140,134.919 239.680 C 134.832 239.452,134.098 238.793,133.289 238.215 C 130.690 236.359,126.129 231.484,125.246 229.618 C 124.799 228.673,124.320 227.900,124.182 227.900 C 123.881 227.900,123.494 227.119,122.554 224.608 C 122.167 223.574,121.688 222.586,121.490 222.414 C 120.741 221.761,120.023 218.816,119.274 213.323 C 119.157 212.461,118.792 211.051,118.465 210.189 C 117.518 207.697,117.533 99.813,118.480 98.498 C 118.817 98.031,119.402 96.738,119.781 95.626 C 120.665 93.028,123.631 89.885,125.759 89.291 C 126.700 89.028,132.449 88.850,144.514 88.710 C 164.174 88.481,164.636 88.494,166.519 89.301 " stroke="none" fill="#4c6c61" fill-rule="evenodd"></path></g></svg>